<svg xmlns="http://www.w3.org/2000/svg" xmlns:xlink="http://www.w3.org/1999/xlink" id="visual" viewBox="0 0 900 600" width="900" height="600" version="1.1">
  <rect x="0" y="0" width="900" height="600" fill="#190f46"/>
<g>
    <path d="M0 -13.2L3 -4.1L12.6 -4.1L4.8 1.6L7.8 10.7L0 5L-7.8 10.7L-4.8 1.6L-12.6 -4.1L-3 -4.1Z" transform="translate(160 444)" fill="#db2ca5" fill-opacity=".2"/>
    <g transform="translate(850 14)">
      <line fill="none" stroke="#db2ca520" stroke-miterlimit="10" stroke-width="2" x1="0" x2="20" y1="10" y2="10"/>
      <line fill="none" stroke="#db2ca520" stroke-miterlimit="10" stroke-width="2" x1="10" x2="10" y1="0" y2="20"/>
    </g>
    <g transform="translate(852 557)">
      <line fill="none" stroke="#db2ca520" stroke-miterlimit="10" stroke-width="2" x1="0" x2="10" y1="5" y2="5"/>
      <line fill="none" stroke="#db2ca520" stroke-miterlimit="10" stroke-width="2" x1="5" x2="5" y1="0" y2="10"/>
    </g>
    <path d="M0 -8.5L1.9 -2.6L8.1 -2.6L3.1 1L5 6.9L0 3.2L-5 6.9L-3.1 1L-8.1 -2.6L-1.9 -2.6Z" transform="translate(123 520)" fill="#db2ca5" fill-opacity=".2"/>
    <path d="M0 -11.3L2.5 -3.5L10.8 -3.5L4.1 1.3L6.7 9.2L0 4.3L-6.7 9.2L-4.1 1.3L-10.8 -3.5L-2.5 -3.5Z" transform="translate(330 19)" fill="#fdfc4a" fill-opacity=".2"/>
    <path d="M0 -2.8L0.6 -0.9L2.7 -0.9L1 0.3L1.7 2.3L0 1.1L-1.7 2.3L-1 0.3L-2.7 -0.9L-0.6 -0.9Z" transform="translate(176 368)" fill="#db2ca5" fill-opacity=".2"/>
    <path d="M0 -6.6L1.5 -2L6.3 -2L2.4 0.8L3.9 5.3L0 2.5L-3.9 5.3L-2.4 0.8L-6.3 -2L-1.5 -2Z" transform="translate(143 498)" fill="#db2ca5" fill-opacity=".2"/>
    <path d="M0 -3.8L0.8 -1.2L3.6 -1.2L1.4 0.4L2.2 3.1L0 1.4L-2.2 3.1L-1.4 0.4L-3.6 -1.2L-0.8 -1.2Z" transform="translate(405 207)" fill="#db2ca5" fill-opacity=".2"/>
    <path d="M0 -4.7L1.1 -1.5L4.5 -1.5L1.7 0.6L2.8 3.8L0 1.8L-2.8 3.8L-1.7 0.6L-4.5 -1.5L-1.1 -1.5Z" transform="translate(155 158)" fill="#e9f7ff" fill-opacity=".2"/>
    <g transform="translate(291 332)">
      <line fill="none" stroke="#fdfc4a20" stroke-miterlimit="10" stroke-width="2" x1="0" x2="10" y1="5" y2="5"/>
      <line fill="none" stroke="#fdfc4a20" stroke-miterlimit="10" stroke-width="2" x1="5" x2="5" y1="0" y2="10"/>
    </g>
    <path d="M0 -10.4L2.3 -3.2L9.9 -3.2L3.8 1.2L6.1 8.4L0 4L-6.1 8.4L-3.8 1.2L-9.9 -3.2L-2.3 -3.2Z" transform="translate(701 208)" fill="#fdfc4a" fill-opacity=".2"/>
    <path d="M0 -9.4L2.1 -2.9L9 -2.9L3.4 1.1L5.5 7.6L0 3.6L-5.5 7.6L-3.4 1.1L-9 -2.9L-2.1 -2.9Z" transform="translate(463 528)" fill="#db2ca5" fill-opacity=".2"/>
    <path d="M0 -4.7L1.1 -1.5L4.5 -1.5L1.7 0.6L2.8 3.8L0 1.8L-2.8 3.8L-1.7 0.6L-4.5 -1.5L-1.1 -1.5Z" transform="translate(771 437)" fill="#db2ca5" fill-opacity=".2"/>
    <path d="M0 -8.5L1.9 -2.6L8.1 -2.6L3.1 1L5 6.9L0 3.2L-5 6.9L-3.1 1L-8.1 -2.6L-1.9 -2.6Z" transform="translate(102 293)" fill="#58dff3" fill-opacity=".2"/>
    <path d="M0 -8.5L1.9 -2.6L8.1 -2.6L3.1 1L5 6.9L0 3.2L-5 6.9L-3.1 1L-8.1 -2.6L-1.9 -2.6Z" transform="translate(788 81)" fill="#58dff3" fill-opacity=".2"/>
    <path d="M0 -5.7L1.3 -1.7L5.4 -1.7L2.1 0.7L3.3 4.6L0 2.2L-3.3 4.6L-2.1 0.7L-5.4 -1.7L-1.3 -1.7Z" transform="translate(609 248)" fill="#db2ca5" fill-opacity=".2"/>
    <path d="M0 -4.7L1.1 -1.5L4.5 -1.5L1.7 0.6L2.8 3.8L0 1.8L-2.8 3.8L-1.7 0.6L-4.5 -1.5L-1.1 -1.5Z" transform="translate(785 367)" fill="#e9f7ff" fill-opacity=".2"/>
    <path d="M0 -5.7L1.3 -1.7L5.4 -1.7L2.1 0.7L3.3 4.6L0 2.2L-3.3 4.6L-2.1 0.7L-5.4 -1.7L-1.3 -1.7Z" transform="translate(309 395)" fill="#db2ca5" fill-opacity=".2"/>
    <g transform="translate(696 128)">
      <line fill="none" stroke="#db2ca520" stroke-miterlimit="10" stroke-width="2" x1="0" x2="10" y1="5" y2="5"/>
      <line fill="none" stroke="#db2ca520" stroke-miterlimit="10" stroke-width="2" x1="5" x2="5" y1="0" y2="10"/>
    </g>
    <path d="M0 -7.6L1.7 -2.3L7.2 -2.3L2.7 0.9L4.4 6.1L0 2.9L-4.4 6.1L-2.7 0.9L-7.2 -2.3L-1.7 -2.3Z" transform="translate(859 499)" fill="#db2ca5" fill-opacity=".2"/>
    <path d="M0 -7.6L1.7 -2.3L7.2 -2.3L2.7 0.9L4.4 6.1L0 2.9L-4.4 6.1L-2.7 0.9L-7.2 -2.3L-1.7 -2.3Z" transform="translate(524 421)" fill="#58dff3" fill-opacity=".2"/>
  </g>
</svg>