<?xml version="1.0" standalone="no"?>
<!DOCTYPE svg PUBLIC "-//W3C//DTD SVG 20010904//EN"
 "http://www.w3.org/TR/2001/REC-SVG-20010904/DTD/svg10.dtd">
<svg version="1.0" xmlns="http://www.w3.org/2000/svg"
 width="400.000000pt" height="400.000000pt" viewBox="0 0 400.000000 400.000000"
 preserveAspectRatio="xMidYMid meet">
<metadata>
Created by potrace 1.14, written by Peter Selinger 2001-2017
</metadata>
<g transform="translate(0.000000,400.000000) scale(0.100000,-0.100000)"
fill="#000000" stroke="none">
<path d="M0 3885 l0 -115 2000 0 2000 0 0 115 0 115 -2000 0 -2000 0 0 -115z"/>
<path d="M580 3045 l0 -65 -64 0 -64 0 -6 -192 c-3 -106 -5 -220 -5 -253 1
-106 7 -97 -66 -93 -39 2 -65 -1 -66 -7 0 -5 0 -65 1 -132 l1 -123 -48 1 c-26
1 -96 1 -155 0 l-108 -1 0 -155 0 -155 155 0 155 0 0 -55 0 -55 70 0 70 0 0
-65 0 -65 65 0 65 0 0 65 0 65 -65 0 -65 0 0 335 0 334 68 3 67 3 2 55 c1 30
2 151 2 268 l1 212 130 0 130 0 0 -65 0 -65 70 0 70 0 0 -70 0 -70 65 0 65 0
0 -65 0 -65 270 0 270 0 0 65 0 65 70 0 70 0 0 70 0 70 68 0 67 0 -3 65 -4 65
136 0 136 0 2 -267 3 -268 68 -3 67 -3 0 -334 0 -335 -70 0 -70 0 0 -70 0 -70
-65 0 -65 0 0 -65 0 -65 -675 0 -675 0 0 65 0 65 -32 1 c-18 0 -45 2 -60 4
-33 4 -40 -4 -43 -59 -5 -72 -2 -76 71 -76 l64 0 0 -65 0 -65 65 0 65 0 2
-202 3 -203 133 -3 132 -3 0 66 0 65 -65 0 -65 0 0 138 0 137 537 0 538 0 3
68 3 67 64 0 64 0 3 68 3 67 65 1 65 1 3 67 3 66 64 0 65 0 0 340 0 340 -65 0
-65 0 0 65 0 65 270 0 270 0 0 -70 0 -70 65 0 65 0 0 -65 0 -65 70 0 70 0 0
-135 0 -135 65 0 65 0 0 -270 0 -270 -65 0 -65 0 0 -65 0 -65 -70 0 -69 0 -3
-67 -3 -68 -62 -3 -62 -3 -3 -67 -3 -67 -67 -3 -68 -3 0 73 0 73 -135 -3 -135
-3 0 -70 0 -69 -65 0 -64 0 -3 70 -3 71 -403 2 -402 2 0 -72 0 -73 -70 0 -71
0 3 -63 3 -62 132 -3 132 -3 3 68 3 68 265 0 265 0 5 -65 5 -65 132 -3 132 -3
3 68 3 68 130 0 130 0 3 -67 3 -68 134 0 135 0 0 135 0 135 70 0 70 0 0 70 0
70 65 0 65 0 0 65 0 65 64 0 c51 0 65 3 70 17 4 9 6 94 5 187 l-1 171 291 3
291 2 0 155 0 155 -182 2 c-101 1 -200 0 -221 -1 l-38 -2 2 55 c2 61 -1 59 82
56 l47 -1 0 345 0 346 -70 0 -70 0 0 65 0 65 -135 0 -135 0 0 -65 0 -64 -65
-3 -65 -3 -5 -137 -5 -138 70 0 70 0 0 -114 c0 -82 -4 -116 -13 -119 -9 -4 -9
-6 1 -6 6 -1 12 -5 12 -11 0 -6 -50 -10 -129 -10 -127 0 -129 0 -130 23 -1 12
-3 42 -5 67 l-3 45 -67 -3 -66 -4 0 71 0 71 -270 0 -269 0 -3 133 -3 132 -66
3 -67 3 2 64 2 65 -138 0 -138 0 0 -65 0 -65 -65 0 -65 0 -1 -52 c-1 -29 -2
-60 -3 -68 -1 -11 -17 -16 -68 -18 l-68 -3 0 -64 0 -65 -265 0 -265 0 0 43 c0
82 -4 87 -76 87 l-64 0 0 70 0 70 -64 0 c-73 0 -75 2 -70 78 l3 52 -139 0
-140 0 0 -65z m2970 -410 l0 -335 -65 0 -65 0 -2 203 -3 202 -65 0 -65 1 -3
132 -3 132 136 0 135 0 0 -335z m-136 -351 c3 -9 6 -62 6 -119 0 -57 -3 -110
-6 -119 -5 -12 -21 -16 -70 -16 l-64 0 0 135 0 135 64 0 c49 0 65 -4 70 -16z"/>
<path d="M258 2473 c7 -3 16 -2 19 1 4 3 -2 6 -13 5 -11 0 -14 -3 -6 -6z"/>
<path d="M395 2460 c3 -5 8 -10 11 -10 2 0 4 5 4 10 0 6 -5 10 -11 10 -5 0 -7
-4 -4 -10z"/>
<path d="M261 2414 c0 -11 3 -14 6 -6 3 7 2 16 -1 19 -3 4 -6 -2 -5 -13z"/>
<path d="M720 2165 l0 -135 135 0 135 0 0 70 0 70 -70 0 -70 0 0 65 0 65 -65
0 -65 0 0 -135z"/>
<path d="M1660 2165 l0 -135 140 0 141 0 -3 68 -3 67 -67 3 -68 3 0 64 0 65
-70 0 -70 0 0 -135z"/>
<path d="M3691 2264 c0 -11 3 -14 6 -6 3 7 2 16 -1 19 -3 4 -6 -2 -5 -13z"/>
<path d="M3717 2266 c-4 -10 -5 -21 -2 -24 9 -9 17 6 13 25 -3 17 -4 17 -11
-1z"/>
<path d="M3741 2254 c0 -11 3 -14 6 -6 3 7 2 16 -1 19 -3 4 -6 -2 -5 -13z"/>
<path d="M1120 2100 l0 -70 70 0 70 0 0 70 0 70 -70 0 -70 0 0 -70z"/>
<path d="M857 1893 c-4 -3 -7 -64 -7 -135 l0 -128 475 0 476 0 -3 133 -3 132
-65 0 -65 0 -3 -67 -3 -68 -134 0 -135 0 0 70 0 70 -65 0 -65 0 0 -70 0 -70
-135 0 -135 0 0 70 0 70 -63 0 c-35 0 -67 -3 -70 -7z"/>
<path d="M1125 1222 c-3 -3 -5 -34 -5 -68 l0 -63 38 -3 c20 -2 81 -2 135 0
l97 3 0 65 0 64 -107 1 c-60 0 -118 2 -131 3 -12 2 -24 0 -27 -2z"/>
<path d="M997 3 c552 -2 1454 -2 2006 0 551 1 100 2 -1003 2 -1103 0 -1554 -1
-1003 -2z"/>
</g>
</svg>
